<svg width="1920" height="36" viewBox="0 0 1920 36" fill="none" xmlns="http://www.w3.org/2000/svg">
<rect y="24.9796" width="36.1695" height="11.0204" fill="white"/>
<rect x="4.42889" width="27.3117" height="24.9796" fill="white"/>
<rect y="24.9796" width="36.1695" height="11.0204" fill="white"/>
<rect x="4.42889" width="27.3117" height="24.9796" fill="white"/>
<rect x="78.3674" y="24.9796" width="36.1695" height="11.0204" fill="white"/>
<rect x="82.7963" width="27.3117" height="24.9796" fill="white"/>
<rect x="156.735" y="24.9796" width="36.1695" height="11.0204" fill="white"/>
<rect x="161.164" width="27.3117" height="24.9796" fill="white"/>
<rect x="235.102" y="24.9796" width="36.1695" height="11.0204" fill="white"/>
<rect x="239.531" width="27.3117" height="24.9796" fill="white"/>
<rect x="313.469" y="24.9796" width="36.1695" height="11.0204" fill="white"/>
<rect x="317.898" width="27.3117" height="24.9796" fill="white"/>
<rect x="391.837" y="24.9796" width="36.1695" height="11.0204" fill="white"/>
<rect x="396.266" width="27.3117" height="24.9796" fill="white"/>
<rect x="472.214" y="24.9796" width="36.1695" height="11.0204" fill="white"/>
<rect x="476.642" width="27.3117" height="24.9796" fill="white"/>
<rect x="550.581" y="24.9796" width="36.1695" height="11.0204" fill="white"/>
<rect x="555.01" width="27.3117" height="24.9796" fill="white"/>
<rect x="628.948" y="24.9796" width="36.1695" height="11.0204" fill="white"/>
<rect x="633.377" width="27.3117" height="24.9796" fill="white"/>
<rect x="707.316" y="24.9796" width="36.1695" height="11.0204" fill="white"/>
<rect x="711.744" width="27.3117" height="24.9796" fill="white"/>
<rect x="785.683" y="24.9796" width="36.1695" height="11.0204" fill="white"/>
<rect x="790.112" width="27.3117" height="24.9796" fill="white"/>
<rect x="864.05" y="24.9796" width="36.1695" height="11.0204" fill="white"/>
<rect x="868.479" width="27.3117" height="24.9796" fill="white"/>
<rect x="941.413" y="24.9796" width="36.1695" height="11.0204" fill="white"/>
<rect x="945.842" width="27.3117" height="24.9796" fill="white"/>
<rect x="1019.78" y="24.9796" width="36.1695" height="11.0204" fill="white"/>
<rect x="1024.21" width="27.3117" height="24.9796" fill="white"/>
<rect x="1098.15" y="24.9796" width="36.1695" height="11.0204" fill="white"/>
<rect x="1102.58" width="27.3117" height="24.9796" fill="white"/>
<rect x="1176.51" y="24.9796" width="36.1695" height="11.0204" fill="white"/>
<rect x="1180.94" width="27.3117" height="24.9796" fill="white"/>
<rect x="1254.88" y="24.9796" width="36.1695" height="11.0204" fill="white"/>
<rect x="1259.31" width="27.3117" height="24.9796" fill="white"/>
<rect x="1333.25" y="24.9796" width="36.1695" height="11.0204" fill="white"/>
<rect x="1337.68" width="27.3117" height="24.9796" fill="white"/>
<rect x="1413.63" y="24.9796" width="36.1695" height="11.0204" fill="white"/>
<rect x="1418.06" width="27.3117" height="24.9796" fill="white"/>
<rect x="1413.63" y="24.9796" width="36.1695" height="11.0204" fill="white"/>
<rect x="1418.06" width="27.3117" height="24.9796" fill="white"/>
<rect x="1491.99" y="24.9796" width="36.1695" height="11.0204" fill="white"/>
<rect x="1496.42" width="27.3117" height="24.9796" fill="white"/>
<rect x="1570.36" y="24.9796" width="36.1695" height="11.0204" fill="white"/>
<rect x="1574.79" width="27.3117" height="24.9796" fill="white"/>
<rect x="1648.73" y="24.9796" width="36.1695" height="11.0204" fill="white"/>
<rect x="1653.16" width="27.3117" height="24.9796" fill="white"/>
<rect x="1727.1" y="24.9796" width="36.1695" height="11.0204" fill="white"/>
<rect x="1731.52" width="27.3117" height="24.9796" fill="white"/>
<rect x="1805.46" y="24.9796" width="36.1695" height="11.0204" fill="white"/>
<rect x="1809.89" width="27.3117" height="24.9796" fill="white"/>
<rect x="1883.83" y="24.9796" width="36.1695" height="11.0204" fill="white"/>
<rect x="1888.26" width="27.3117" height="24.9796" fill="white"/>
</svg>
