<svg width="42" height="42" viewBox="0 0 42 42" fill="none" xmlns="http://www.w3.org/2000/svg">
<path d="M11.0694 22.3692H15.6733V41.3226C15.6733 41.6968 15.9765 42 16.3507 42H24.1568C24.531 42 24.8342 41.6968 24.8342 41.3226V22.4585H30.1267C30.4709 22.4585 30.7604 22.2003 30.7997 21.8584L31.6035 14.8807C31.6256 14.6888 31.5648 14.4965 31.4363 14.3525C31.3077 14.2083 31.1238 14.1258 30.9307 14.1258H24.8345V9.75186C24.8345 8.43333 25.5444 7.76472 26.9448 7.76472C27.1443 7.76472 30.9307 7.76472 30.9307 7.76472C31.3049 7.76472 31.6081 7.46137 31.6081 7.0873V0.682432C31.6081 0.308226 31.3049 0.0050129 30.9307 0.0050129H25.4375C25.3987 0.00311613 25.3127 0 25.1859 0C24.2328 0 20.9198 0.187103 18.3028 2.59465C15.4031 5.2626 15.8062 8.45704 15.9025 9.0109V14.1257H11.0694C10.6952 14.1257 10.392 14.4289 10.392 14.8031V21.6916C10.392 22.0659 10.6952 22.3692 11.0694 22.3692Z" fill="#32CE91"/>
</svg>
