<svg width="52" height="42" viewBox="0 0 52 42" fill="none" xmlns="http://www.w3.org/2000/svg">
<g clip-path="url(#clip0)">
<path d="M51.445 5.11433C49.5521 5.95378 47.518 6.52112 45.3829 6.77629C47.5622 5.46998 49.2356 3.40157 50.0237 0.937052C47.9845 2.14645 45.7256 3.02485 43.3215 3.49829C41.3961 1.447 38.6531 0.165161 35.6174 0.165161C29.7884 0.165161 25.0626 4.89078 25.0626 10.7195C25.0626 11.5467 25.1561 12.3523 25.336 13.1247C16.564 12.6846 8.78699 8.48265 3.58133 2.09715C2.67283 3.65598 2.15234 5.46904 2.15234 7.40329C2.15234 11.065 4.01583 14.2955 6.84785 16.1882C5.11759 16.1334 3.49026 15.6587 2.06709 14.8682C2.06634 14.9122 2.06634 14.9564 2.06634 15.0008C2.06634 20.1146 5.7045 24.3806 10.5329 25.35C9.64713 25.5913 8.71473 25.7202 7.75203 25.7202C7.07197 25.7202 6.41072 25.6541 5.76641 25.5309C7.10941 29.7241 11.0073 32.7756 15.6258 32.8608C12.0136 35.6915 7.46262 37.3789 2.51777 37.3789C1.66591 37.3789 0.825709 37.329 0 37.2315C4.67086 40.2262 10.2188 41.9734 16.1792 41.9734C35.5928 41.9734 46.2088 25.8907 46.2088 11.9434C46.2088 11.4857 46.1987 11.0305 46.1784 10.578C48.2404 9.08989 50.0299 7.23092 51.445 5.11433Z" fill="#32CE91"/>
</g>
<defs>
<clipPath id="clip0">
<rect width="51.445" height="42" fill="white"/>
</clipPath>
</defs>
</svg>
