<svg width="43" height="42" viewBox="0 0 43 42" fill="none" xmlns="http://www.w3.org/2000/svg">
<path d="M8.58582 0H11.1058L12.8348 6.4785L14.4378 0H16.9823L14.0686 9.63375V16.2085H11.5643V9.63375L8.58582 0V0ZM20.1253 4.15275C18.1671 4.15275 16.8686 5.44775 16.8686 7.364V13.2248C16.8686 15.3318 17.9693 16.429 20.1253 16.429C21.9138 16.429 23.3208 15.2338 23.3208 13.2248V7.364C23.3208 5.49325 21.9261 4.15275 20.1253 4.15275ZM21.0546 13.125C21.0546 13.776 20.7221 14.2555 20.1236 14.2555C19.5093 14.2555 19.1541 13.7533 19.1541 13.125V7.56175C19.1541 6.90725 19.4551 6.4225 20.0798 6.4225C20.7623 6.4225 21.0546 6.89325 21.0546 7.56175V13.125ZM29.3303 4.2525V13.328C29.0591 13.6675 28.4553 14.224 28.0231 14.224C27.5488 14.224 27.4316 13.8985 27.4316 13.419V4.2525H25.2091V14.245C25.2091 15.4263 25.5696 16.38 26.7613 16.38C27.4333 16.38 28.3678 16.03 29.3303 14.8873V16.2068H31.5528V4.2525H29.3303ZM33.1856 28.504C32.4016 28.504 32.2388 29.0553 32.2388 29.8393V30.9925H34.1096V29.8375C34.1113 29.0675 33.9486 28.504 33.1856 28.504ZM24.9553 28.574C24.8083 28.6493 24.6631 28.7647 24.5178 28.9205V36.0168C24.6911 36.2023 24.8573 36.3353 25.0201 36.4175C25.3648 36.5925 25.8688 36.6048 26.1033 36.3003C26.2258 36.1393 26.2871 35.8785 26.2871 35.5145V29.6363C26.2871 29.2513 26.2118 28.9608 26.0613 28.7613C25.8041 28.4235 25.3263 28.3868 24.9553 28.574ZM33.4026 19.4828C28.8456 19.173 14.0371 19.173 9.48707 19.4828C4.56257 19.8188 3.98157 22.7938 3.94482 30.625C3.98157 38.4423 4.55732 41.4313 9.48707 41.7673C14.0371 42.077 28.8456 42.077 33.4026 41.7673C38.3271 41.4313 38.9081 38.4545 38.9448 30.625C38.9081 22.8078 38.3323 19.8188 33.4026 19.4828ZM11.8356 38.1833H9.45032V24.9883H6.98282V22.7483H14.3013V24.9883H11.8338V38.1833H11.8356ZM20.3161 38.1833H18.1986V36.9268C17.8083 37.3905 17.4023 37.744 16.9806 37.9855C15.8396 38.64 14.2733 38.6243 14.2733 36.3143V26.7978H16.3891V35.5268C16.3891 35.9853 16.4993 36.2933 16.9526 36.2933C17.3656 36.2933 17.9396 35.763 18.1968 35.441V26.7978H20.3143V38.1833H20.3161ZM28.4658 35.8243C28.4658 37.233 27.9391 38.3285 26.5303 38.3285C25.7551 38.3285 25.1093 38.045 24.5196 37.3083V38.1833H22.3828V22.7483H24.5196V27.7183C24.9973 27.1355 25.6466 26.6543 26.4026 26.6543C27.9531 26.6543 28.4676 27.965 28.4676 29.5085V35.8243H28.4658ZM36.2901 32.7583H32.2406V34.9073C32.2406 35.7613 32.3141 36.4998 33.1646 36.4998C34.0588 36.4998 34.1113 35.8978 34.1113 34.9073V34.1163H36.2901V34.972C36.2901 37.1648 35.3486 38.4948 33.1173 38.4948C31.0961 38.4948 30.0618 37.0213 30.0618 34.972V29.8603C30.0618 27.8845 31.3673 26.5108 33.2766 26.5108C35.3083 26.5108 36.2883 27.8023 36.2883 29.8603V32.7583H36.2901Z" fill="#F33F38"/>
</svg>
