<svg width="43" height="42" viewBox="0 0 43 42" fill="none" xmlns="http://www.w3.org/2000/svg">
<g clip-path="url(#clip0)">
<path d="M21.4448 3.78386C27.0521 3.78386 27.7162 3.8052 29.9305 3.90623C31.978 3.99968 33.09 4.34179 33.83 4.62929C34.8102 5.01025 35.5098 5.46539 36.2446 6.20021C36.9794 6.93502 37.4346 7.63466 37.8154 8.6148C38.103 9.35487 38.4451 10.4668 38.5386 12.5142C38.6396 14.7286 38.661 15.3928 38.661 21C38.661 26.6073 38.6396 27.2714 38.5386 29.4858C38.4451 31.5333 38.103 32.6452 37.8154 33.3853C37.4346 34.3654 36.9794 35.0651 36.2446 35.7999C35.5098 36.5347 34.8102 36.9898 33.83 37.3707C33.09 37.6583 31.978 38.0004 29.9305 38.0938C27.7165 38.1949 27.0524 38.2162 21.4448 38.2162C15.8372 38.2162 15.1731 38.1949 12.959 38.0938C10.9115 38.0004 9.79961 37.6583 9.05962 37.3707C8.0794 36.9898 7.37976 36.5347 6.64495 35.7999C5.91013 35.0651 5.45499 34.3654 5.07412 33.3853C4.78653 32.6452 4.44442 31.5333 4.35097 29.4859C4.24994 27.2714 4.2286 26.6073 4.2286 21C4.2286 15.3928 4.24994 14.7286 4.35097 12.5143C4.44442 10.4668 4.78653 9.35487 5.07412 8.6148C5.45499 7.63466 5.91013 6.93502 6.64495 6.20021C7.37976 5.46539 8.0794 5.01025 9.05962 4.62929C9.79961 4.34179 10.9115 3.99968 12.9589 3.90623C15.1734 3.8052 15.8375 3.78386 21.4448 3.78386ZM21.4448 0C15.7415 0 15.0264 0.0241743 12.7866 0.126373C10.5513 0.228405 9.02478 0.583351 7.68894 1.10251C6.30801 1.63918 5.13689 2.35724 3.96944 3.5247C2.80198 4.69215 2.08392 5.86327 1.54726 7.2442C1.02809 8.58004 0.673146 10.1065 0.571114 12.3418C0.468915 14.5816 0.444824 15.2967 0.444824 21C0.444824 26.7033 0.468915 27.4185 0.571114 29.6583C0.673146 31.8936 1.02809 33.42 1.54726 34.7559C2.08392 36.1367 2.80198 37.3079 3.96944 38.4754C5.13689 39.6428 6.30801 40.3609 7.68894 40.8976C9.02478 41.4167 10.5513 41.7717 12.7866 41.8737C15.0264 41.9759 15.7415 42 21.4448 42C27.1481 42 27.8632 41.9759 30.103 41.8737C32.3383 41.7717 33.8648 41.4167 35.2006 40.8976C36.5816 40.3609 37.7527 39.6428 38.9201 38.4754C40.0876 37.3079 40.8056 36.1368 41.3423 34.7559C41.8615 33.42 42.2164 31.8936 42.3185 29.6583C42.4207 27.4185 42.4448 26.7033 42.4448 21C42.4448 15.2967 42.4207 14.5816 42.3185 12.3418C42.2164 10.1065 41.8615 8.58004 41.3423 7.2442C40.8056 5.86327 40.0876 4.69215 38.9201 3.5247C37.7527 2.35724 36.5816 1.63918 35.2006 1.10251C33.8648 0.583351 32.3383 0.228405 30.103 0.126373C27.8632 0.0241743 27.1481 0 21.4448 0ZM21.4448 10.2162C15.4891 10.2162 10.661 15.0443 10.661 21C10.661 26.9558 15.4891 31.7839 21.4448 31.7839C27.4005 31.7839 32.2286 26.9558 32.2286 21C32.2286 15.0443 27.4005 10.2162 21.4448 10.2162ZM21.4448 28.0001C17.5788 28.0001 14.4447 24.866 14.4447 21C14.4447 17.1341 17.5788 14 21.4448 14C25.3108 14 28.4448 17.1341 28.4448 21C28.4448 24.866 25.3108 28.0001 21.4448 28.0001ZM35.1746 9.79017C35.1746 11.1819 34.0464 12.3102 32.6547 12.3102C31.2629 12.3102 30.1346 11.1819 30.1346 9.79017C30.1346 8.3984 31.2629 7.27021 32.6547 7.27021C34.0464 7.27021 35.1746 8.3984 35.1746 9.79017Z" fill="#F33F38"/>
</g>
<defs>
<clipPath id="clip0">
<rect width="42" height="42" fill="white" transform="translate(0.444824)"/>
</clipPath>
</defs>
</svg>
