<svg width="42" height="42" viewBox="0 0 42 42" fill="none" xmlns="http://www.w3.org/2000/svg">
<path d="M11.0695 22.3692H15.6734V41.3226C15.6734 41.6968 15.9766 42 16.3508 42H24.1568C24.5311 42 24.8343 41.6968 24.8343 41.3226V22.4585H30.1268C30.4709 22.4585 30.7605 22.2003 30.7998 21.8584L31.6036 14.8807C31.6257 14.6888 31.5648 14.4965 31.4364 14.3525C31.3078 14.2083 31.1238 14.1258 30.9308 14.1258H24.8345V9.75186C24.8345 8.43333 25.5445 7.76472 26.9448 7.76472C27.1444 7.76472 30.9308 7.76472 30.9308 7.76472C31.305 7.76472 31.6082 7.46137 31.6082 7.0873V0.682432C31.6082 0.308226 31.305 0.0050129 30.9308 0.0050129H25.4376C25.3988 0.00311613 25.3128 0 25.186 0C24.2329 0 20.9199 0.187103 18.3029 2.59465C15.4032 5.2626 15.8063 8.45704 15.9026 9.0109V14.1257H11.0695C10.6953 14.1257 10.3921 14.4289 10.3921 14.8031V21.6916C10.3921 22.0659 10.6953 22.3692 11.0695 22.3692Z" fill="#F33F38"/>
</svg>
