<svg width="645" height="100" viewBox="0 0 645 100" fill="none" xmlns="http://www.w3.org/2000/svg">
<path d="M5.03626 72H8.34826V25.2H8.49226L33.3323 72H36.6443L61.4843 25.2H61.6283V72H64.9403V20.592H59.9723L34.9883 67.824L10.0043 20.592H5.03626V72ZM86.8941 72H90.2061V20.592H86.8941V72ZM115.119 23.472H138.375C145.647 23.472 152.127 25.632 152.127 33.984C152.127 45.72 140.751 45.72 137.511 45.72H115.119V23.472ZM111.807 72H115.119V48.6H138.015C148.167 48.6 151.047 51.12 151.263 60.048C151.479 67.896 151.767 71.136 152.703 72H156.015C155.079 70.056 154.791 67.248 154.575 57.744C154.503 52.2 151.263 47.88 144.927 47.088V46.944C152.199 45.216 155.439 39.672 155.439 34.2C155.439 23.472 147.951 20.592 138.087 20.592H111.807V72ZM178.775 23.472H202.031C209.303 23.472 215.783 25.632 215.783 33.984C215.783 45.72 204.407 45.72 201.167 45.72H178.775V23.472ZM175.463 72H178.775V48.6H201.671C211.823 48.6 214.703 51.12 214.919 60.048C215.135 67.896 215.423 71.136 216.359 72H219.671C218.735 70.056 218.447 67.248 218.231 57.744C218.159 52.2 214.919 47.88 208.583 47.088V46.944C215.855 45.216 219.095 39.672 219.095 34.2C219.095 23.472 211.607 20.592 201.743 20.592H175.463V72ZM236.886 46.296C236.886 56.304 243.366 73.152 264.174 73.152C284.982 73.152 291.462 56.304 291.462 46.296C291.462 36.288 284.982 19.44 264.174 19.44C243.294 19.44 236.886 36.288 236.886 46.296ZM240.198 46.296C240.198 33.984 248.694 22.32 264.174 22.32C279.654 22.32 288.15 33.984 288.15 46.296C288.15 58.608 279.654 70.272 264.174 70.272C248.694 70.272 240.198 58.608 240.198 46.296ZM314.171 23.472H337.427C344.699 23.472 351.179 25.632 351.179 33.984C351.179 45.72 339.803 45.72 336.563 45.72H314.171V23.472ZM310.859 72H314.171V48.6H337.067C347.219 48.6 350.099 51.12 350.315 60.048C350.531 67.896 350.819 71.136 351.755 72H355.067C354.131 70.056 353.843 67.248 353.627 57.744C353.555 52.2 350.315 47.88 343.979 47.088V46.944C351.251 45.216 354.491 39.672 354.491 34.2C354.491 23.472 347.003 20.592 337.139 20.592H310.859V72ZM406.747 23.472H426.763C438.931 23.472 447.211 30.024 447.211 46.296C447.211 62.136 438.859 69.12 427.555 69.12H406.747V23.472ZM403.435 72H426.907C442.891 72 450.523 61.344 450.523 46.296C450.523 26.424 439.651 20.592 427.483 20.592H403.435V72ZM491.404 24.336L504.292 52.56H478.516L491.404 24.336ZM465.916 72H469.66L477.22 55.44H505.588L513.148 72H516.892L493.276 20.592H489.532L465.916 72ZM531.044 55.008C531.044 65.952 537.452 73.152 554.372 73.152C570.428 73.152 575.036 65.592 575.036 58.608C575.036 50.4 569.42 47.16 559.124 45.072L548.54 42.984C538.748 41.04 536.372 38.304 536.372 32.832C536.372 26.928 540.476 22.32 553.004 22.32C566.468 22.32 569.924 29.232 570.284 35.136H573.596C573.236 24.192 565.028 19.44 552.068 19.44C539.396 19.44 532.628 25.056 532.628 32.76C532.628 40.464 536.876 43.92 548.18 46.224L557.756 48.24C568.484 50.544 571.292 52.992 571.292 58.824C571.292 64.872 566.756 70.272 554.084 70.272C540.26 70.272 534.428 64.584 534.356 55.008H531.044ZM594.331 72H597.643V46.368H637.027V72H640.339V20.592H637.027V43.488H597.643V20.592H594.331V72Z" fill="#14005C"/>
</svg>
