<svg width="21" height="21" viewBox="0 0 21 21" fill="none" xmlns="http://www.w3.org/2000/svg">
<path d="M6.46452 16.3418C6.46452 16.2167 7.10124 15.6298 7.44435 15.4387C7.62614 15.3374 7.95677 15.1882 8.1791 15.1072C8.65371 14.9341 8.64165 14.9893 8.448 13.8763C8.20619 12.4864 7.87029 11.3742 7.40809 10.4329C7.26041 10.1322 7.11589 9.86207 7.08693 9.83267C7.05797 9.80328 6.97746 9.9669 6.90801 10.1963C6.80222 10.5457 6.76053 10.6078 6.65101 10.5791C6.5296 10.5474 6.52815 10.5536 6.63075 10.667C6.74975 10.7985 6.70647 11.0418 6.57697 10.9693C6.52126 10.9381 6.52178 10.9505 6.57881 11.0122C6.67615 11.1176 6.61823 11.3052 6.50864 11.2396C6.45083 11.2049 6.45008 11.2185 6.50577 11.2912C6.55822 11.3598 6.56058 11.4626 6.51353 11.629L6.44592 11.8682L6.31857 11.5837C6.24852 11.4273 6.15472 11.0644 6.1101 10.7775C6.03048 10.2653 6.02703 10.2589 5.92338 10.4297C5.8653 10.5255 5.79414 10.6038 5.76526 10.6038C5.73637 10.6038 5.71274 10.652 5.71274 10.7109C5.71274 10.7908 5.67376 10.8057 5.55949 10.7694C5.42484 10.7267 5.41726 10.734 5.49702 10.8302C5.61056 10.967 5.54241 11.0909 5.3859 11.0323C5.28766 10.9955 5.28234 11.0054 5.35332 11.0928C5.44993 11.2118 5.40206 11.2949 5.26678 11.243C5.2016 11.218 5.18722 11.2513 5.21588 11.3609C5.24345 11.4663 5.23132 11.4985 5.17672 11.4648C5.12758 11.4344 5.0976 11.4641 5.0976 11.5436C5.0976 11.6138 5.05366 11.7309 4.99996 11.8039C4.90607 11.9315 4.90044 11.9317 4.85352 11.8106C4.77885 11.6179 4.93899 10.6459 5.11146 10.245C5.19598 10.0485 5.39394 9.72961 5.55137 9.53633L5.83761 9.1849L5.65556 9.17902C5.55544 9.17581 5.37356 9.17005 5.25139 9.16623C5.09242 9.16124 5.02866 9.12656 5.02718 9.04423C5.02526 8.93927 5.019 8.93966 4.95543 9.04881C4.91711 9.1146 4.85654 9.16842 4.82081 9.16842C4.78508 9.16842 4.75343 9.1146 4.75046 9.04881C4.74725 8.97736 4.73119 8.9636 4.71059 9.01464C4.69163 9.06163 4.63254 9.10008 4.57929 9.10008C4.52604 9.10008 4.482 9.06163 4.48142 9.01464C4.48061 8.94799 4.46815 8.94846 4.4248 9.01676C4.38661 9.07695 4.31967 9.08599 4.2107 9.04569L4.05219 8.98705L4.26389 8.8363C4.76923 8.47646 5.24409 8.31497 5.79818 8.3145L6.32788 8.31381L6.32938 8.04042C6.33019 7.89005 6.3903 7.63611 6.46293 7.47611C6.61407 7.14313 6.92993 6.70762 7.02028 6.70762C7.10359 6.70762 7.00926 7.2761 6.91555 7.33879C6.86588 7.37202 6.87297 7.38936 6.93652 7.39006C7.00996 7.39087 7.00345 7.42326 6.90884 7.5278C6.82564 7.61973 6.81372 7.6645 6.87244 7.6645C6.94073 7.6645 6.93931 7.68969 6.86595 7.78015C6.80221 7.85872 6.79953 7.87933 6.85758 7.84445C6.90457 7.81622 6.94302 7.82389 6.94302 7.86148C6.94302 7.89907 6.91256 7.94865 6.87535 7.97164C6.83253 7.99811 6.83796 8.04589 6.89012 8.10173C6.95633 8.1726 7.03774 8.11865 7.30363 7.82773C7.49005 7.62376 7.78967 7.39105 7.98943 7.29509C8.32458 7.13409 9.17643 6.93614 9.24388 7.0036C9.3126 7.07232 8.81765 7.46202 8.69908 7.43256C8.5994 7.40778 8.59101 7.42046 8.65562 7.49832C8.71973 7.57557 8.7035 7.60767 8.5741 7.65948C8.48522 7.69506 8.43935 7.72613 8.47214 7.72852C8.50494 7.73091 8.49376 7.77864 8.44731 7.83461C8.40085 7.89059 8.3388 7.92152 8.3094 7.90335C8.28001 7.88519 8.2371 7.91948 8.21405 7.97955C8.1894 8.0438 8.1287 8.0721 8.06664 8.04829C7.99803 8.02196 7.97819 8.03539 8.00989 8.08669C8.03811 8.13235 7.97539 8.23195 7.86097 8.32318L7.6633 8.4808L7.99751 8.38022C8.65248 8.1831 9.3516 8.28102 9.99929 8.6606L10.323 8.8503L10.1255 8.91614C9.98927 8.96153 9.88894 8.95765 9.80244 8.90363C9.70152 8.84061 9.67696 8.84545 9.67696 8.92837C9.67696 9.05379 9.59901 9.06063 9.47556 8.94603C9.40192 8.87768 9.39316 8.87768 9.43174 8.94603C9.46325 9.00183 9.43311 9.03147 9.34494 9.03147C9.27068 9.03147 9.19439 8.99302 9.17543 8.94603C9.15484 8.895 9.13879 8.90876 9.13556 8.98021C9.13263 9.04599 9.09512 9.09981 9.05227 9.09981C9.00942 9.09981 8.93245 9.04599 8.88123 8.98021C8.79252 8.86629 8.79008 8.86629 8.82975 8.98021C8.86589 9.084 8.82496 9.09981 8.52048 9.09981H8.16955L8.69505 9.52699C8.98407 9.76194 9.2689 10.0285 9.32801 10.1194L9.43548 10.2847L9.09486 10.2381C8.90753 10.2125 8.74509 10.1644 8.73389 10.1314C8.72269 10.0983 8.65348 10.0869 8.5801 10.1061C8.50365 10.1261 8.44669 10.1068 8.44669 10.0606C8.44669 10.0164 8.41571 9.99942 8.37785 10.0228C8.33999 10.0462 8.28958 10.0147 8.26582 9.95277C8.23123 9.86262 8.21089 9.85836 8.16378 9.93135C8.11898 10.0008 8.09538 9.98771 8.06487 9.87668C8.03532 9.76914 7.98742 9.74062 7.88247 9.76806C7.76713 9.79822 7.7491 9.78192 7.78741 9.6821C7.82491 9.58437 7.81566 9.5747 7.74263 9.63531C7.67437 9.69196 7.62777 9.69005 7.56226 9.62789C7.51369 9.5818 7.61816 9.75691 7.79442 10.017C8.56116 11.1485 9.23473 12.9221 9.50328 14.5164C9.54319 14.7534 9.56387 14.7727 9.77674 14.7727H10.007L10.0496 14.243C10.1272 13.2758 10.294 12.0216 10.4377 11.3253C10.7488 9.81745 11.3752 8.12183 12.0271 7.02302C12.2029 6.72659 12.3374 6.47469 12.326 6.46324C12.3145 6.45179 12.1567 6.53484 11.9752 6.64781C11.7937 6.76078 11.6381 6.84352 11.6295 6.83168C11.6208 6.81983 11.5597 6.73325 11.4938 6.63927L11.3738 6.4684L11.4203 6.69513C11.4555 6.86612 11.4359 6.95616 11.3409 7.06142C11.2155 7.20024 11.2144 7.19956 11.1346 6.93722L11.0544 6.67347L11.0492 6.99243C11.0434 7.34616 10.9221 7.45605 10.79 7.22732C10.7119 7.09195 10.7069 7.09605 10.7046 7.29759C10.7023 7.49776 10.5437 7.67685 10.1778 7.89226C9.93316 8.03626 10.5412 6.6709 10.9717 6.1096C11.2714 5.71879 11.2708 5.71701 10.8771 5.82631C10.6438 5.89109 10.5958 5.88472 10.5183 5.77869C10.434 5.66341 10.4288 5.66458 10.4288 5.79874C10.4288 6.02416 10.2404 6.04557 10.1209 5.83372L10.0163 5.64824L10.0346 5.85203C10.0567 6.09898 9.85999 6.17368 9.70038 5.97891C9.60104 5.85769 9.59891 5.85789 9.63951 5.98452C9.66342 6.05913 9.64374 6.13977 9.59382 6.17143C9.46249 6.25475 9.40355 6.24089 9.40355 6.12667C9.40355 6.07028 9.37279 6.02415 9.3352 6.02415C9.29761 6.02415 9.26685 6.08566 9.26685 6.16085C9.26685 6.23679 9.22128 6.29754 9.16432 6.29754C9.10794 6.29754 9.0618 6.26497 9.0618 6.22516C9.0618 6.18535 9.03055 6.17209 8.99234 6.19571C8.95413 6.21932 8.93909 6.26486 8.95889 6.29691C8.98948 6.3464 8.30965 6.59341 8.2652 6.54896C8.22589 6.50965 8.99504 5.66747 9.29929 5.41668C9.98544 4.85109 10.9741 4.45381 11.7031 4.45073L12.035 4.44929L11.7006 4.15676C11.3986 3.89257 11.374 3.84967 11.4467 3.71391C11.491 3.63123 11.4986 3.56357 11.4637 3.56357C11.4288 3.56357 11.3812 3.61317 11.358 3.67379C11.3234 3.76382 11.2968 3.76832 11.2124 3.69832C11.1204 3.62194 11.1207 3.5951 11.2148 3.4514C11.3064 3.31162 11.3071 3.29018 11.2197 3.29018C11.1644 3.29018 11.0921 3.33825 11.0593 3.39702C11.0051 3.49374 10.991 3.49362 10.9097 3.39573C10.8346 3.30516 10.8399 3.26561 10.9425 3.15219C11.0712 3.01006 10.9923 2.95907 10.8554 3.09589C10.7955 3.15582 10.7492 3.15255 10.6647 3.08241C10.562 2.9972 10.5632 2.98231 10.6789 2.89625C10.7947 2.81013 10.791 2.80607 10.6322 2.84492C10.4934 2.87889 10.4296 2.84636 10.3055 2.67856L10.1513 2.46999H10.3613C11.2128 2.46999 12.4397 2.96169 12.9711 3.51591L13.2981 3.85691L13.6308 3.54571C13.8138 3.37455 14.0899 3.16999 14.2445 3.09114C14.5917 2.914 15.2309 2.74338 15.5474 2.74338H15.7846L15.4908 2.99969C15.3292 3.14066 15.1007 3.2927 14.983 3.33758C14.8652 3.38244 14.8092 3.42089 14.8584 3.42301C15.0486 3.43121 14.8517 3.56357 14.6493 3.56357C14.4464 3.56357 14.4421 3.56883 14.5679 3.66392C14.693 3.75857 14.687 3.76484 14.4613 3.77436C14.3298 3.7799 14.2776 3.79886 14.3455 3.81645C14.5154 3.86049 14.4466 4.01167 14.2658 3.99155C14.1096 3.97415 14.0624 4.07972 14.205 4.12772C14.2701 4.14963 14.2661 4.18621 14.1879 4.28145C14.0917 4.39876 14.0979 4.40332 14.2888 4.35574C15.1864 4.13206 15.7513 4.14695 16.4861 4.41365C16.9528 4.58307 17.615 4.95795 17.7915 5.15267C17.8934 5.26505 17.8797 5.27233 17.5647 5.27321C17.3803 5.2739 17.1608 5.29255 17.0769 5.31505C16.9551 5.3477 16.9076 5.31655 16.8416 5.16032L16.7588 4.96471L16.7333 5.15267C16.7016 5.38624 16.4962 5.4067 16.3902 5.18684L16.316 5.03305L16.3113 5.18684C16.3079 5.30202 16.2658 5.34063 16.1438 5.34063C16.0355 5.34063 15.9639 5.28909 15.9301 5.18684L15.8793 5.03305L15.849 5.18684C15.831 5.27868 15.7688 5.34063 15.6948 5.34063C15.6266 5.34063 15.548 5.27142 15.52 5.18684L15.4692 5.03305L15.4389 5.18684C15.4123 5.32216 15.3661 5.34097 15.0546 5.34351L14.7005 5.34639L15.0969 5.51101C15.8025 5.80408 16.3758 6.3004 16.7539 6.94557C16.9439 7.26983 17.2942 8.20341 17.2445 8.25312C17.2289 8.26878 17.0782 8.20457 16.9098 8.11044C16.6323 7.95532 16.6058 7.91841 16.6269 7.71644C16.6486 7.50919 16.6446 7.50436 16.5705 7.64738C16.4446 7.89047 16.3075 7.83825 16.3013 7.54485C16.2961 7.2946 16.2943 7.29292 16.2281 7.47403C16.1686 7.63682 16.1439 7.64937 16.0269 7.57656C15.9248 7.51304 15.9029 7.44551 15.9332 7.28854L15.9729 7.0835L15.845 7.2426C15.7363 7.37785 15.7049 7.387 15.6358 7.30364C15.5884 7.24661 15.5704 7.10858 15.5926 6.97367L15.6308 6.74176L15.5193 6.93556C15.3933 7.15436 15.4256 7.16843 14.8442 6.64147C14.6731 6.4863 14.5935 6.44429 14.6216 6.52392C14.8241 7.09731 15.0494 8.69642 14.9522 8.87013C14.9055 8.95347 14.8307 8.90374 14.5751 8.61946C14.2445 8.25175 14.2093 8.17998 14.3246 8.10872C14.3622 8.08549 14.393 8.03377 14.393 7.9938C14.393 7.94953 14.3509 7.95607 14.2852 8.01053C14.1959 8.08462 14.1669 8.08313 14.1154 8.0018C14.0268 7.86171 14.0358 7.81777 14.1708 7.73189C14.2705 7.6685 14.2591 7.66245 14.1025 7.69562C13.8828 7.74213 13.8371 7.58378 14.0341 7.4585C14.1349 7.39445 14.1252 7.38844 13.9729 7.42044C13.7189 7.47382 13.6474 7.27051 13.8599 7.0991L14.017 6.9724L13.8547 7.01818C13.75 7.0477 13.6716 7.03102 13.6336 6.9712C13.538 6.82018 13.5629 6.77592 13.7437 6.77592C13.8376 6.77592 13.9145 6.74517 13.9145 6.70758C13.9145 6.66998 13.8256 6.63923 13.7169 6.63923C13.5352 6.63923 13.5143 6.61305 13.4585 6.31458L13.3978 5.98991L13.1066 6.47698C12.1259 8.11735 11.5106 10.7176 11.3456 13.9192L11.2998 14.8085L11.8382 14.9666C12.1344 15.0535 12.6302 15.2433 12.9401 15.3883C13.4666 15.6347 14.4225 16.2266 14.5022 16.3556C14.5217 16.3872 12.7213 16.4131 10.5011 16.4131C7.7333 16.4131 6.46453 16.3906 6.46453 16.3415L6.46452 16.3418Z" fill="#14005C"/>
</svg>
