<svg width="43" height="42" viewBox="0 0 43 42" fill="none" xmlns="http://www.w3.org/2000/svg">
<g clip-path="url(#clip0)">
<path d="M21.4449 3.78386C27.0522 3.78386 27.7163 3.8052 29.9307 3.90623C31.9781 3.99968 33.0901 4.34179 33.8301 4.62929C34.8103 5.01025 35.5099 5.46539 36.2447 6.20021C36.9796 6.93502 37.4347 7.63466 37.8156 8.6148C38.1032 9.35487 38.4453 10.4668 38.5387 12.5142C38.6397 14.7286 38.6611 15.3928 38.6611 21C38.6611 26.6073 38.6397 27.2714 38.5387 29.4858C38.4453 31.5333 38.1032 32.6452 37.8156 33.3853C37.4347 34.3654 36.9796 35.0651 36.2447 35.7999C35.5099 36.5347 34.8103 36.9898 33.8301 37.3707C33.0901 37.6583 31.9781 38.0004 29.9307 38.0938C27.7166 38.1949 27.0525 38.2162 21.4449 38.2162C15.8373 38.2162 15.1732 38.1949 12.9591 38.0938C10.9117 38.0004 9.79973 37.6583 9.05975 37.3707C8.07952 36.9898 7.37988 36.5347 6.64507 35.7999C5.91025 35.0651 5.45511 34.3654 5.07424 33.3853C4.78665 32.6452 4.44454 31.5333 4.3511 29.4859C4.25006 27.2714 4.22872 26.6073 4.22872 21C4.22872 15.3928 4.25006 14.7286 4.3511 12.5143C4.44454 10.4668 4.78665 9.35487 5.07424 8.6148C5.45511 7.63466 5.91025 6.93502 6.64507 6.20021C7.37988 5.46539 8.07952 5.01025 9.05975 4.62929C9.79973 4.34179 10.9117 3.99968 12.9591 3.90623C15.1735 3.8052 15.8376 3.78386 21.4449 3.78386ZM21.4449 0C15.7416 0 15.0265 0.0241743 12.7867 0.126373C10.5514 0.228405 9.0249 0.583351 7.68906 1.10251C6.30813 1.63918 5.13701 2.35724 3.96956 3.5247C2.80211 4.69215 2.08405 5.86327 1.54738 7.2442C1.02821 8.58004 0.673268 10.1065 0.571236 12.3418C0.469037 14.5816 0.444946 15.2967 0.444946 21C0.444946 26.7033 0.469037 27.4185 0.571236 29.6583C0.673268 31.8936 1.02821 33.42 1.54738 34.7559C2.08405 36.1367 2.80211 37.3079 3.96956 38.4754C5.13701 39.6428 6.30813 40.3609 7.68906 40.8976C9.0249 41.4167 10.5514 41.7717 12.7867 41.8737C15.0265 41.9759 15.7416 42 21.4449 42C27.1482 42 27.8633 41.9759 30.1031 41.8737C32.3384 41.7717 33.8649 41.4167 35.2007 40.8976C36.5817 40.3609 37.7528 39.6428 38.9202 38.4754C40.0877 37.3079 40.8058 36.1368 41.3424 34.7559C41.8616 33.42 42.2165 31.8936 42.3186 29.6583C42.4208 27.4185 42.4449 26.7033 42.4449 21C42.4449 15.2967 42.4208 14.5816 42.3186 12.3418C42.2165 10.1065 41.8616 8.58004 41.3424 7.2442C40.8058 5.86327 40.0877 4.69215 38.9202 3.5247C37.7528 2.35724 36.5817 1.63918 35.2007 1.10251C33.8649 0.583351 32.3384 0.228405 30.1031 0.126373C27.8633 0.0241743 27.1482 0 21.4449 0ZM21.4449 10.2162C15.4892 10.2162 10.6611 15.0443 10.6611 21C10.6611 26.9558 15.4892 31.7839 21.4449 31.7839C27.4006 31.7839 32.2287 26.9558 32.2287 21C32.2287 15.0443 27.4006 10.2162 21.4449 10.2162ZM21.4449 28.0001C17.5789 28.0001 14.4449 24.866 14.4449 21C14.4449 17.1341 17.5789 14 21.4449 14C25.3109 14 28.4449 17.1341 28.4449 21C28.4449 24.866 25.3109 28.0001 21.4449 28.0001ZM35.1747 9.79017C35.1747 11.1819 34.0465 12.3102 32.6548 12.3102C31.263 12.3102 30.1347 11.1819 30.1347 9.79017C30.1347 8.3984 31.263 7.27021 32.6548 7.27021C34.0465 7.27021 35.1747 8.3984 35.1747 9.79017Z" fill="#E2255A"/>
</g>
<defs>
<clipPath id="clip0">
<rect width="42" height="42" fill="white" transform="translate(0.444946)"/>
</clipPath>
</defs>
</svg>
