<svg width="44" height="56" viewBox="0 0 44 56" fill="none" xmlns="http://www.w3.org/2000/svg">
<path d="M22.4923 5.15018e-06C22.3557 5.15018e-06 21.9462 0.0337075 21.639 0.0614996C20.4308 0.170816 19.2498 0.362122 18.6013 0.553426C18.4921 0.580755 18.1645 0.676407 17.8846 0.758395C15.946 1.31181 13.4681 2.63728 12.1233 3.83293C11.7205 4.19504 11.6523 4.38634 11.8775 4.50933C11.9936 4.57082 12.0892 4.54349 12.4168 4.34535C12.7445 4.14038 13.8776 3.58697 14.4374 3.35467C14.9835 3.12237 15.8436 2.81492 16.1644 2.73976C16.3009 2.7056 16.6627 2.61678 16.9631 2.54162C20.1168 1.74908 23.523 1.94721 26.2672 3.08138C27.7894 3.71678 28.9021 4.40001 30.1308 5.45901C32.4585 7.46088 33.9876 10.4329 34.3698 13.7056C34.5337 15.1062 34.4859 16.2199 34.1992 17.5932C33.9944 18.5702 33.4893 20.0323 33.107 20.736C32.6565 21.5627 32.4995 21.8224 32.165 22.3075C30.1035 25.2727 27.2092 27.1379 23.5162 27.8758C22.779 28.0193 21.0724 28.0466 20.2738 27.9168C18.417 27.623 16.6695 26.8441 15.2497 25.6826C13.8162 24.5143 12.5806 22.7789 11.9731 21.1118C11.2768 19.1783 11.2154 17.1149 11.8025 15.3727C12.4987 13.3162 14.0892 11.5056 16.0074 10.5832C17.2702 9.97516 18.1235 9.77019 19.3386 9.77019C21.0929 9.77019 22.6083 10.3988 23.8643 11.6491C24.5879 12.3733 24.9702 12.913 25.2978 13.6714C25.6801 14.5801 25.8098 15.1677 25.8098 16.0354C25.8098 17.1491 25.4958 18.1534 24.8473 19.0894C24.4992 19.6019 23.6118 20.3739 23.0657 20.6472C22.1237 21.1186 21.7687 21.2075 20.854 21.2143C19.9734 21.2143 19.6389 21.1391 18.9085 20.7839C18.458 20.5584 17.5023 19.6429 17.2566 19.1851C16.8197 18.3926 16.6286 17.3404 16.7856 16.6162C17.161 14.8671 19.0724 13.6099 20.5878 14.1224C20.9973 14.259 21.6458 14.6963 21.8643 14.9901C22.4923 15.8099 22.5878 16.6776 22.1305 17.5112C21.9189 17.9075 21.6595 18.1398 21.1816 18.3584C20.8949 18.4882 20.8199 18.5565 20.8199 18.6863C20.8199 18.9665 20.9769 19.028 21.4069 18.905C22.3694 18.6317 23.1339 17.8596 23.3797 16.9168C23.5913 16.1174 23.4684 15.1745 23.0725 14.423C22.8131 13.9447 22.3899 13.4255 21.8165 12.9882C21.0451 12.4553 19.8915 12.182 18.929 12.2981C17.6662 12.4553 16.7924 12.8926 15.8709 13.8286C15.0108 14.7031 14.5193 15.646 14.3418 16.787C13.707 20.8932 17.202 24.6236 21.5025 24.4391C22.4923 24.3913 23.209 24.2615 23.994 23.9745C25.2978 23.5031 26.3491 22.8199 27.2774 21.8429C28.3218 20.7429 29.0522 19.4857 29.455 18.0031C29.5663 17.5932 29.728 17.4224 29.8304 15.6801C29.8304 14.0814 29.6461 13.6578 29.2502 12.4348C27.803 7.92547 23.4479 5.01491 18.6082 5.21305C16.6354 5.29504 14.9425 5.7528 13.1199 6.70932C10.369 8.15094 8.10267 10.8634 7.11287 13.9037C6.66917 15.2702 6.36881 16.4249 6.36881 17.846C6.36881 19.2671 6.55995 20.3261 6.7306 21.0093C7.26304 23.1478 7.78183 24.4323 8.74433 25.9764C9.82287 27.7255 11.5089 29.3994 13.4407 30.6429C14.2667 31.1758 15.7753 31.8727 16.8607 32.2143C18.6696 32.7882 19.9734 32.9658 21.9803 32.9043C24.2671 32.8429 25.8166 32.5149 27.7826 31.6882C30.1854 30.677 32.2742 29.1876 34.0831 27.1857C36.1173 24.9379 37.5508 22.1435 38.1174 19.3354C38.2949 18.4404 38.5065 17.5932 38.5065 15.9193C38.5065 14.6553 38.3495 14.1702 38.2335 13.3913C38.1652 12.8789 37.7966 11.3348 37.6805 11.0342C37.6328 10.918 37.5713 10.7335 37.544 10.6242C37.2232 9.42175 36.1173 7.3379 35.1139 6.03293C34.4859 5.21988 33.0183 3.7646 32.2196 3.16336C30.5813 1.93355 29.2092 1.26398 26.861 0.546593C26.3559 0.396283 25.0589 0.177649 23.994 0.0683323C23.6186 0.0273385 23.209 5.15018e-06 22.9701 5.15018e-06C22.7312 5.15018e-06 22.5731 5.15018e-06 22.4923 5.15018e-06Z" fill="black"/>
<path d="M15.3248 36.8671C14.6081 37.0174 13.7002 37.4888 13.1609 37.9807C11.9254 39.1217 11.3451 40.7273 11.4202 42.8385C11.468 44.3621 11.8025 45.3664 12.5807 46.364C14.5193 48.8441 18.7174 48.8509 20.581 46.3776C20.9905 45.831 21.3865 45.0112 21.5844 44.3074C21.7824 43.5627 21.8097 41.3422 21.6185 40.659C21.052 38.6093 19.7755 37.277 17.9734 36.8671C17.359 36.7304 15.9869 36.7304 15.3248 36.8671ZM17.8164 38.0286C19.1133 38.4112 19.9871 39.4018 20.3557 40.9118C20.5605 41.759 20.5605 43.3168 20.3489 44.1025C19.9257 45.6807 18.9563 46.6714 17.5092 46.972C15.6798 47.3546 14.0824 46.6304 13.2496 45.0385C12.8059 44.1776 12.6762 43.4944 12.7172 42.2577C12.7377 41.39 12.7718 41.1509 12.922 40.6863C13.5363 38.8279 14.9835 37.7894 16.8266 37.8851C17.1679 37.8987 17.6116 37.9671 17.8164 38.0286Z" fill="black"/>
<path d="M37.544 36.8671C37.2983 36.9217 36.8068 37.1062 36.4518 37.277C35.9058 37.5435 35.7078 37.6938 35.2231 38.1857C34.2879 39.1285 33.8033 40.2422 33.6599 41.7863C33.4961 43.5422 33.8442 44.9975 34.7112 46.2205C35.8375 47.8124 37.8785 48.5366 39.9878 48.1062C41.9879 47.6894 43.3873 46.2136 43.8787 44.0068C44.0562 43.1938 44.0357 41.4174 43.8378 40.6248C43.3599 38.7254 42.0493 37.3385 40.2882 36.8876C39.667 36.7304 38.2335 36.7167 37.544 36.8671ZM40.1448 38.049C41.0527 38.336 41.7694 38.9577 42.2131 39.8664C42.6295 40.7068 42.8214 41.0454 42.8214 42.4665C42.8214 43.6007 42.6842 43.8155 42.5408 44.2733C41.9742 46.0907 40.6636 47.0745 38.8069 47.0745C37.742 47.0745 36.916 46.7329 36.1993 46.0087C35.6464 45.4484 35.2436 44.7174 35.0457 43.8975C34.8613 43.1664 34.875 41.6702 35.073 40.9733C35.5508 39.2925 36.6498 38.1857 38.1311 37.9192C38.6294 37.8304 39.6328 37.8919 40.1448 38.049Z" fill="black"/>
<path d="M0.0136524 42.4422L0.034131 47.9969L0.634836 48.0174L1.23554 48.0379L1.21506 43.2211C1.20141 40.577 1.20824 38.4248 1.22189 38.4385C1.23554 38.4522 1.29698 38.5752 1.35841 38.705C1.41985 38.8348 2.78509 40.987 4.40289 43.4807L7.33815 48.0311H8.10951H8.87405L8.86039 42.4764L8.83992 36.9286L8.23921 36.9081C7.80234 36.8944 7.63168 36.9149 7.6112 36.9764C7.59755 37.0242 7.60438 39.1696 7.63168 41.7453C7.65899 44.3211 7.67946 46.4323 7.67946 46.4391C7.67264 46.446 6.3074 44.3006 4.64181 41.677L1.60415 36.8944H0.798664H0L0.0136524 42.4422Z" fill="black"/>
<path d="M23.0043 36.9217C23.0043 36.9422 23.5162 38.3428 24.1374 40.0509C24.7586 41.7522 25.6187 44.1161 26.0487 45.2981C26.4788 46.4801 26.8815 47.5801 26.943 47.7372L27.0522 48.031H27.7143H28.3765L29.1 46.0633C29.496 44.9838 30.2127 43.0435 30.6837 41.7453C31.1616 40.4472 31.7486 38.8553 31.9875 38.2062C32.2264 37.5503 32.4244 36.99 32.4244 36.9559C32.4244 36.9217 32.1377 36.8944 31.7896 36.8944H31.1479L30.5882 38.4795C30.2741 39.354 29.8714 40.4882 29.6871 40.9938C28.3287 44.7994 27.844 46.1863 27.8099 46.4049C27.7485 46.7534 27.6734 46.7329 27.6256 46.364C27.5983 46.2 26.8679 44.0546 26.001 41.595C25.134 39.1422 24.4105 37.0789 24.39 37.0105C24.3558 36.9081 24.2603 36.8944 23.68 36.8944C23.3046 36.8944 23.0043 36.9081 23.0043 36.9217Z" fill="black"/>
<path d="M1.76138 51.5429C1.16067 51.7068 0.689667 52.1373 0.396141 52.8C0.198182 53.2304 0.184529 54.1938 0.36201 54.7062C0.512186 55.1435 0.928584 55.6286 1.31768 55.813C1.8706 56.0795 2.77166 56.059 3.39284 55.7652L3.6181 55.6559V54.6789V53.7019H2.93548H2.25286V53.9068V54.1118H2.69657H3.14027V54.7677V55.4168L2.8877 55.5261C2.4713 55.6969 1.78186 55.6217 1.42007 55.3758C0.423446 54.6857 0.478055 52.7658 1.50881 52.0826C1.76821 51.9118 1.91156 51.8571 2.38939 51.8571C2.86722 51.8571 3.02422 51.9255 3.26314 52.0484L3.53619 52.2056V51.9118V51.618L3.14027 51.536C2.64196 51.4335 2.1573 51.4335 1.76138 51.5429Z" fill="black"/>
<path d="M41.4213 51.5497C40.8001 51.7547 40.4656 52.3149 40.6158 52.8957C40.7182 53.2646 40.9298 53.4627 41.7148 53.9273C42.0766 54.1391 42.4248 54.3919 42.4862 54.4808C42.6637 54.7373 42.6295 55.082 42.5272 55.2801C42.3224 55.6627 41.6056 55.7242 40.9844 55.4099C40.766 55.3006 40.5749 55.1851 40.5612 55.1851C40.5612 55.2108 40.5612 55.3295 40.5612 55.4988C40.5612 55.6279 40.5612 55.6832 40.5612 55.7516C40.6841 55.8199 40.7228 55.835 40.8547 55.8814C41.0049 55.936 41.3735 55.977 41.6739 55.9839C42.6091 55.9839 43.0732 55.6149 43.0732 54.8702C43.0732 54.2826 42.8412 53.9957 41.9469 53.4969C41.7217 53.3671 41.4554 53.2031 41.3462 53.128C40.9298 52.8273 40.9981 52.1509 41.4623 51.9596C41.7968 51.8162 42.3019 51.8367 42.65 51.9938L42.9367 52.1236L42.9367 51.864C42.9367 51.7157 42.9367 51.7205 42.9367 51.5839C42.8002 51.5497 42.5763 51.4966 42.22 51.4745C41.906 51.4609 41.6329 51.4814 41.4213 51.5497Z" fill="black"/>
<path d="M11.666 51.7C11.5909 51.905 10.3553 55.2733 10.1983 55.6969L10.1096 55.9565H10.3622H10.6216L10.8264 55.3279L11.0311 54.6925L11.9663 54.672C12.5397 54.6652 12.9015 54.6789 12.9015 54.7199C12.9015 54.7609 12.9971 55.0478 13.1131 55.3689C13.3247 55.9497 13.3247 55.9565 13.5568 55.9565C13.6865 55.9565 13.7889 55.936 13.7889 55.9087C13.7889 55.8745 13.4271 54.877 12.9903 53.6882L12.1848 51.5155H11.9595C11.782 51.5155 11.7274 51.5497 11.666 51.7ZM12.3622 53.3056L12.6967 54.2484H11.9527H11.2018L11.5021 53.4081C11.9185 52.2261 11.9527 52.1441 12.0005 52.2671C12.0209 52.3217 12.1848 52.7932 12.3622 53.3056Z" fill="black"/>
<path d="M20.4103 53.7292V55.9565H20.6492H20.8881L20.9018 54.1869L20.9223 52.4174L21.68 54.1665C22.2534 55.4851 22.465 55.9224 22.5537 55.9224C22.6425 55.9224 22.8677 55.4783 23.4548 54.1118L24.233 52.3012V54.1255V55.9565H24.4719H24.7108V53.736V51.5155H24.4173H24.1169L23.3319 53.3534L22.5537 55.1913L21.796 53.3671L21.0383 51.5497L20.7243 51.5292L20.4103 51.5087V53.7292Z" fill="black"/>
<path d="M31.7418 53.736V55.9565H32.8681H33.9944V55.7515V55.5466H33.107H32.2196V54.7267V53.9068H32.9705H33.7214V53.7019V53.4969H32.9705H32.2196V52.7112V51.9255H33.0387H33.8579V51.7205V51.5155H32.7998H31.7418V53.736Z" fill="black"/>
</svg>
