<svg width="52" height="42" viewBox="0 0 52 42" fill="none" xmlns="http://www.w3.org/2000/svg">
<g clip-path="url(#clip0)">
<path d="M51.445 5.11421C49.5521 5.95366 47.518 6.521 45.3829 6.77617C47.5622 5.46986 49.2356 3.40145 50.0237 0.93693C47.9845 2.14633 45.7256 3.02472 43.3215 3.49817C41.3961 1.44688 38.6531 0.165039 35.6174 0.165039C29.7884 0.165039 25.0626 4.89066 25.0626 10.7194C25.0626 11.5466 25.1561 12.3521 25.336 13.1246C16.564 12.6845 8.78699 8.48253 3.58133 2.09702C2.67283 3.65586 2.15234 5.46892 2.15234 7.40316C2.15234 11.0648 4.01583 14.2954 6.84785 16.1881C5.11759 16.1333 3.49026 15.6586 2.06709 14.868C2.06634 14.9121 2.06634 14.9563 2.06634 15.0007C2.06634 20.1145 5.7045 24.3804 10.5329 25.3499C9.64713 25.5912 8.71473 25.7201 7.75203 25.7201C7.07197 25.7201 6.41072 25.654 5.76641 25.5307C7.10941 29.724 11.0073 32.7755 15.6258 32.8607C12.0136 35.6914 7.46262 37.3788 2.51777 37.3788C1.66591 37.3788 0.825709 37.3289 0 37.2314C4.67086 40.226 10.2188 41.9732 16.1792 41.9732C35.5928 41.9732 46.2088 25.8905 46.2088 11.9432C46.2088 11.4856 46.1987 11.0304 46.1784 10.5779C48.2404 9.08977 50.0299 7.2308 51.445 5.11421Z" fill="#E2255A"/>
</g>
<defs>
<clipPath id="clip0">
<rect width="51.445" height="42" fill="white"/>
</clipPath>
</defs>
</svg>
