<svg width="43" height="42" viewBox="0 0 43 42" fill="none" xmlns="http://www.w3.org/2000/svg">
<path d="M8.58595 0H11.1059L12.8349 6.4785L14.4379 0H16.9824L14.0687 9.63375V16.2085H11.5644V9.63375L8.58595 0V0ZM20.1254 4.15275C18.1672 4.15275 16.8687 5.44775 16.8687 7.364V13.2248C16.8687 15.3318 17.9694 16.429 20.1254 16.429C21.9139 16.429 23.3209 15.2338 23.3209 13.2248V7.364C23.3209 5.49325 21.9262 4.15275 20.1254 4.15275ZM21.0547 13.125C21.0547 13.776 20.7222 14.2555 20.1237 14.2555C19.5094 14.2555 19.1542 13.7533 19.1542 13.125V7.56175C19.1542 6.90725 19.4552 6.4225 20.0799 6.4225C20.7624 6.4225 21.0547 6.89325 21.0547 7.56175V13.125ZM29.3304 4.2525V13.328C29.0592 13.6675 28.4554 14.224 28.0232 14.224C27.5489 14.224 27.4317 13.8985 27.4317 13.419V4.2525H25.2092V14.245C25.2092 15.4263 25.5697 16.38 26.7614 16.38C27.4334 16.38 28.3679 16.03 29.3304 14.8873V16.2068H31.5529V4.2525H29.3304ZM33.1857 28.504C32.4017 28.504 32.2389 29.0553 32.2389 29.8393V30.9925H34.1097V29.8375C34.1114 29.0675 33.9487 28.504 33.1857 28.504ZM24.9554 28.574C24.8084 28.6493 24.6632 28.7647 24.5179 28.9205V36.0168C24.6912 36.2023 24.8574 36.3353 25.0202 36.4175C25.3649 36.5925 25.8689 36.6048 26.1034 36.3003C26.2259 36.1393 26.2872 35.8785 26.2872 35.5145V29.6363C26.2872 29.2513 26.2119 28.9608 26.0614 28.7613C25.8042 28.4235 25.3264 28.3868 24.9554 28.574ZM33.4027 19.4828C28.8457 19.173 14.0372 19.173 9.4872 19.4828C4.5627 19.8188 3.9817 22.7938 3.94495 30.625C3.9817 38.4423 4.55745 41.4313 9.4872 41.7673C14.0372 42.077 28.8457 42.077 33.4027 41.7673C38.3272 41.4313 38.9082 38.4545 38.9449 30.625C38.9082 22.8078 38.3324 19.8188 33.4027 19.4828ZM11.8357 38.1833H9.45045V24.9883H6.98295V22.7483H14.3014V24.9883H11.8339V38.1833H11.8357ZM20.3162 38.1833H18.1987V36.9268C17.8084 37.3905 17.4024 37.744 16.9807 37.9855C15.8397 38.64 14.2734 38.6243 14.2734 36.3143V26.7978H16.3892V35.5268C16.3892 35.9853 16.4994 36.2933 16.9527 36.2933C17.3657 36.2933 17.9397 35.763 18.1969 35.441V26.7978H20.3144V38.1833H20.3162ZM28.4659 35.8243C28.4659 37.233 27.9392 38.3285 26.5304 38.3285C25.7552 38.3285 25.1094 38.045 24.5197 37.3083V38.1833H22.3829V22.7483H24.5197V27.7183C24.9974 27.1355 25.6467 26.6543 26.4027 26.6543C27.9532 26.6543 28.4677 27.965 28.4677 29.5085V35.8243H28.4659ZM36.2902 32.7583H32.2407V34.9073C32.2407 35.7613 32.3142 36.4998 33.1647 36.4998C34.0589 36.4998 34.1114 35.8978 34.1114 34.9073V34.1163H36.2902V34.972C36.2902 37.1648 35.3487 38.4948 33.1174 38.4948C31.0962 38.4948 30.0619 37.0213 30.0619 34.972V29.8603C30.0619 27.8845 31.3674 26.5108 33.2767 26.5108C35.3084 26.5108 36.2884 27.8023 36.2884 29.8603V32.7583H36.2902Z" fill="#E2255A"/>
</svg>
